<svg xmlns="http://www.w3.org/2000/svg" xmlns:xlink="http://www.w3.org/1999/xlink" width="1080" zoomAndPan="magnify" viewBox="0 0 810 809.999993" height="1080" preserveAspectRatio="xMidYMid meet" version="1.0"><defs><clipPath id="80a9c81ef0"><path d="M 6.464844 20 L 803.714844 20 L 803.714844 790 L 6.464844 790 Z M 6.464844 20 " clip-rule="nonzero"/></clipPath></defs><path fill="#f36717" d="M 583.816406 652.386719 L 528.820312 652.386719 L 528.820312 679.863281 L 446.335938 679.863281 L 446.335938 707.339844 L 418.847656 707.339844 L 418.847656 734.835938 L 363.863281 734.835938 L 363.863281 707.339844 L 253.871094 707.339844 L 253.871094 679.863281 L 171.394531 679.863281 L 171.394531 707.339844 L 226.382812 707.339844 L 226.382812 734.835938 L 281.367188 734.835938 L 281.367188 762.3125 L 501.320312 762.3125 L 501.320312 734.835938 L 556.328125 734.835938 L 556.328125 707.339844 L 611.3125 707.339844 L 611.3125 679.863281 L 638.78125 679.863281 L 638.78125 652.386719 L 583.816406 652.386719 " fill-opacity="1" fill-rule="nonzero"/><path fill="#f36717" d="M 721.292969 405.039062 L 721.292969 487.484375 L 693.796875 487.484375 L 693.796875 542.457031 L 666.296875 542.457031 L 666.296875 569.933594 L 638.78125 569.933594 L 638.78125 652.386719 L 666.296875 652.386719 L 666.296875 624.902344 L 693.796875 624.902344 L 693.796875 569.933594 L 721.292969 569.933594 L 721.292969 514.972656 L 748.773438 514.972656 L 748.773438 487.484375 L 776.28125 487.484375 L 776.28125 405.039062 L 721.292969 405.039062 " fill-opacity="1" fill-rule="nonzero"/><path fill="#f68c1c" d="M 638.78125 652.386719 L 638.78125 624.902344 L 611.3125 624.902344 L 611.3125 652.386719 L 638.78125 652.386719 " fill-opacity="1" fill-rule="nonzero"/><path fill="#f68c1c" d="M 611.3125 460 L 583.816406 460 L 583.816406 514.972656 L 556.328125 514.972656 L 556.328125 542.457031 L 528.820312 542.457031 L 528.820312 569.933594 L 501.320312 569.933594 L 501.320312 597.410156 L 446.335938 597.410156 L 446.335938 624.902344 L 336.34375 624.902344 L 336.34375 597.410156 L 281.367188 597.410156 L 281.367188 569.933594 L 253.871094 569.933594 L 253.871094 542.457031 L 226.382812 542.457031 L 226.382812 514.972656 L 198.875 514.972656 L 198.875 460 L 171.394531 460 L 171.394531 350.070312 L 198.875 350.070312 L 198.875 295.105469 L 226.382812 295.105469 L 226.382812 267.628906 L 253.871094 267.628906 L 253.871094 240.136719 L 281.367188 240.136719 L 281.367188 212.660156 L 336.34375 212.660156 L 336.34375 185.183594 L 446.335938 185.183594 L 446.335938 212.660156 L 501.320312 212.660156 L 501.320312 240.136719 L 528.820312 240.136719 L 528.820312 267.628906 L 556.328125 267.628906 L 556.328125 295.105469 L 583.816406 295.105469 L 583.816406 350.070312 L 611.3125 350.070312 Z M 693.796875 377.542969 L 638.78125 377.542969 L 638.78125 295.105469 L 611.3125 295.105469 L 611.3125 267.628906 L 583.816406 267.628906 L 583.816406 240.136719 L 611.3125 240.136719 L 611.3125 185.183594 L 556.328125 185.183594 L 556.328125 212.660156 L 528.820312 212.660156 L 528.820312 185.183594 L 501.320312 185.183594 L 501.320312 157.6875 L 418.847656 157.6875 L 418.847656 75.242188 L 363.863281 75.242188 L 363.863281 157.6875 L 281.367188 157.6875 L 281.367188 185.183594 L 171.394531 185.183594 L 171.394531 295.105469 L 143.898438 295.105469 L 143.898438 377.542969 L 61.398438 377.542969 L 61.398438 432.523438 L 143.898438 432.523438 L 143.898438 514.972656 L 171.394531 514.972656 L 171.394531 597.410156 L 143.898438 597.410156 L 143.898438 652.386719 L 198.875 652.386719 L 198.875 624.902344 L 226.382812 624.902344 L 226.382812 597.410156 L 253.871094 597.410156 L 253.871094 624.902344 L 281.367188 624.902344 L 281.367188 652.386719 L 363.863281 652.386719 L 363.863281 734.835938 L 418.847656 734.835938 L 418.847656 652.386719 L 501.320312 652.386719 L 501.320312 624.902344 L 528.820312 624.902344 L 528.820312 597.410156 L 556.328125 597.410156 L 556.328125 624.902344 L 611.3125 624.902344 L 611.3125 569.933594 L 583.816406 569.933594 L 583.816406 542.457031 L 611.3125 542.457031 L 611.3125 514.972656 L 638.78125 514.972656 L 638.78125 432.523438 L 721.292969 432.523438 L 721.292969 377.542969 L 693.796875 377.542969 " fill-opacity="1" fill-rule="nonzero"/><path fill="#f68c1c" d="M 391.351562 295.105469 L 363.863281 295.105469 L 363.863281 322.59375 L 336.34375 322.59375 L 336.34375 350.070312 L 391.351562 350.070312 L 391.351562 514.972656 L 336.34375 514.972656 L 336.34375 542.457031 L 418.847656 542.457031 L 418.847656 267.628906 L 391.351562 267.628906 L 391.351562 295.105469 " fill-opacity="1" fill-rule="nonzero"/><path fill="#f68c1c" d="M 638.78125 157.6875 L 611.3125 157.6875 L 611.3125 185.183594 L 638.78125 185.183594 L 638.78125 157.6875 " fill-opacity="1" fill-rule="nonzero"/><path fill="#f3f02c" d="M 226.382812 624.902344 L 253.871094 624.902344 L 253.871094 597.410156 L 226.382812 597.410156 L 226.382812 624.902344 " fill-opacity="1" fill-rule="nonzero"/><path fill="#f3f02c" d="M 116.410156 542.457031 L 143.898438 542.457031 L 143.898438 514.972656 L 116.410156 514.972656 L 116.410156 542.457031 " fill-opacity="1" fill-rule="nonzero"/><path fill="#f3f02c" d="M 116.410156 460 L 116.410156 432.523438 L 88.902344 432.523438 L 88.902344 514.972656 L 116.410156 514.972656 L 116.410156 460 " fill-opacity="1" fill-rule="nonzero"/><path fill="#f3f02c" d="M 528.820312 322.59375 L 528.820312 295.105469 L 501.320312 295.105469 L 501.320312 267.628906 L 473.832031 267.628906 L 473.832031 240.136719 L 363.863281 240.136719 L 363.863281 267.628906 L 418.847656 267.628906 L 418.847656 542.457031 L 336.34375 542.457031 L 336.34375 487.484375 L 363.863281 487.484375 L 363.863281 350.070312 L 336.34375 350.070312 L 336.34375 295.105469 L 308.855469 295.105469 L 308.855469 322.59375 L 281.367188 322.59375 L 281.367188 350.070312 L 253.871094 350.070312 L 253.871094 432.523438 L 226.382812 432.523438 L 226.382812 487.484375 L 253.871094 487.484375 L 253.871094 514.972656 L 281.367188 514.972656 L 281.367188 542.457031 L 308.855469 542.457031 L 308.855469 569.933594 L 473.832031 569.933594 L 473.832031 542.457031 L 501.320312 542.457031 L 501.320312 514.972656 L 528.820312 514.972656 L 528.820312 487.484375 L 556.328125 487.484375 L 556.328125 322.59375 L 528.820312 322.59375 " fill-opacity="1" fill-rule="nonzero"/><path fill="#f3f02c" d="M 88.902344 322.59375 L 88.902344 377.542969 L 116.410156 377.542969 L 116.410156 295.105469 L 88.902344 295.105469 L 88.902344 322.59375 " fill-opacity="1" fill-rule="nonzero"/><path fill="#f3f02c" d="M 363.863281 267.628906 L 336.34375 267.628906 L 336.34375 295.105469 L 363.863281 295.105469 L 363.863281 267.628906 " fill-opacity="1" fill-rule="nonzero"/><path fill="#f3f02c" d="M 116.410156 267.628906 L 116.410156 295.105469 L 143.898438 295.105469 L 143.898438 240.136719 L 116.410156 240.136719 L 116.410156 267.628906 " fill-opacity="1" fill-rule="nonzero"/><path fill="#f3f02c" d="M 143.898438 240.136719 L 171.394531 240.136719 L 171.394531 212.660156 L 143.898438 212.660156 L 143.898438 240.136719 " fill-opacity="1" fill-rule="nonzero"/><path fill="#f3f02c" d="M 226.382812 157.6875 L 198.875 157.6875 L 198.875 185.183594 L 226.382812 185.183594 L 226.382812 157.6875 " fill-opacity="1" fill-rule="nonzero"/><path fill="#f3f02c" d="M 281.367188 157.6875 L 281.367188 130.214844 L 226.382812 130.214844 L 226.382812 157.6875 L 281.367188 157.6875 " fill-opacity="1" fill-rule="nonzero"/><path fill="#f3f02c" d="M 143.898438 157.6875 L 171.394531 157.6875 L 171.394531 130.214844 L 143.898438 130.214844 L 143.898438 157.6875 " fill-opacity="1" fill-rule="nonzero"/><path fill="#f3f02c" d="M 473.832031 130.214844 L 501.320312 130.214844 L 501.320312 102.726562 L 446.335938 102.726562 L 446.335938 75.242188 L 418.847656 75.242188 L 418.847656 130.214844 L 473.832031 130.214844 " fill-opacity="1" fill-rule="nonzero"/><path fill="#f3f02c" d="M 336.34375 130.214844 L 363.863281 130.214844 L 363.863281 75.242188 L 336.34375 75.242188 L 336.34375 102.726562 L 281.367188 102.726562 L 281.367188 130.214844 L 336.34375 130.214844 " fill-opacity="1" fill-rule="nonzero"/><path fill="#ffffff" d="M 363.863281 377.542969 L 363.863281 487.484375 L 336.34375 487.484375 L 336.34375 514.972656 L 391.351562 514.972656 L 391.351562 350.070312 L 363.863281 350.070312 L 363.863281 377.542969 " fill-opacity="1" fill-rule="nonzero"/><path fill="#ffffff" d="M 336.34375 322.59375 L 363.863281 322.59375 L 363.863281 295.105469 L 336.34375 295.105469 L 336.34375 322.59375 " fill-opacity="1" fill-rule="nonzero"/><path fill="#ffffff" d="M 61.398438 322.59375 L 61.398438 377.542969 L 88.902344 377.542969 L 88.902344 295.105469 L 61.398438 295.105469 L 61.398438 322.59375 " fill-opacity="1" fill-rule="nonzero"/><path fill="#ffffff" d="M 363.863281 267.628906 L 363.863281 295.105469 L 391.351562 295.105469 L 391.351562 267.628906 L 363.863281 267.628906 " fill-opacity="1" fill-rule="nonzero"/><path fill="#ffffff" d="M 363.863281 267.628906 L 363.863281 240.136719 L 308.855469 240.136719 L 308.855469 267.628906 L 281.367188 267.628906 L 281.367188 295.105469 L 253.871094 295.105469 L 253.871094 322.59375 L 226.382812 322.59375 L 226.382812 432.523438 L 253.871094 432.523438 L 253.871094 350.070312 L 281.367188 350.070312 L 281.367188 322.59375 L 308.855469 322.59375 L 308.855469 295.105469 L 336.34375 295.105469 L 336.34375 267.628906 L 363.863281 267.628906 " fill-opacity="1" fill-rule="nonzero"/><path fill="#ffffff" d="M 226.382812 130.214844 L 281.367188 130.214844 L 281.367188 102.726562 L 336.34375 102.726562 L 336.34375 75.242188 L 253.871094 75.242188 L 253.871094 102.726562 L 198.875 102.726562 L 198.875 130.214844 L 171.394531 130.214844 L 171.394531 157.6875 L 143.898438 157.6875 L 143.898438 185.183594 L 116.410156 185.183594 L 116.410156 212.660156 L 88.902344 212.660156 L 88.902344 295.105469 L 116.410156 295.105469 L 116.410156 240.136719 L 143.898438 240.136719 L 143.898438 212.660156 L 171.394531 212.660156 L 171.394531 185.183594 L 198.875 185.183594 L 198.875 157.6875 L 226.382812 157.6875 L 226.382812 130.214844 " fill-opacity="1" fill-rule="nonzero"/><path fill="#f9cd1a" d="M 308.855469 652.386719 L 281.367188 652.386719 L 281.367188 624.902344 L 198.875 624.902344 L 198.875 652.386719 L 143.898438 652.386719 L 143.898438 679.863281 L 253.871094 679.863281 L 253.871094 707.339844 L 363.863281 707.339844 L 363.863281 652.386719 L 308.855469 652.386719 " fill-opacity="1" fill-rule="nonzero"/><path fill="#f9cd1a" d="M 556.328125 624.902344 L 556.328125 597.410156 L 528.820312 597.410156 L 528.820312 624.902344 L 501.320312 624.902344 L 501.320312 652.386719 L 418.847656 652.386719 L 418.847656 707.339844 L 446.335938 707.339844 L 446.335938 679.863281 L 528.820312 679.863281 L 528.820312 652.386719 L 611.3125 652.386719 L 611.3125 624.902344 L 556.328125 624.902344 " fill-opacity="1" fill-rule="nonzero"/><path fill="#f9cd1a" d="M 308.855469 569.933594 L 308.855469 542.457031 L 281.367188 542.457031 L 281.367188 514.972656 L 253.871094 514.972656 L 253.871094 487.484375 L 226.382812 487.484375 L 226.382812 322.59375 L 253.871094 322.59375 L 253.871094 295.105469 L 281.367188 295.105469 L 281.367188 267.628906 L 308.855469 267.628906 L 308.855469 240.136719 L 473.832031 240.136719 L 473.832031 267.628906 L 501.320312 267.628906 L 501.320312 295.105469 L 528.820312 295.105469 L 528.820312 322.59375 L 556.328125 322.59375 L 556.328125 487.484375 L 528.820312 487.484375 L 528.820312 514.972656 L 501.320312 514.972656 L 501.320312 542.457031 L 473.832031 542.457031 L 473.832031 569.933594 Z M 446.335938 624.902344 L 446.335938 597.410156 L 501.320312 597.410156 L 501.320312 569.933594 L 528.820312 569.933594 L 528.820312 542.457031 L 556.328125 542.457031 L 556.328125 514.972656 L 583.816406 514.972656 L 583.816406 460 L 611.3125 460 L 611.3125 350.070312 L 583.816406 350.070312 L 583.816406 295.105469 L 556.328125 295.105469 L 556.328125 267.628906 L 528.820312 267.628906 L 528.820312 240.136719 L 501.320312 240.136719 L 501.320312 212.660156 L 446.335938 212.660156 L 446.335938 185.183594 L 336.34375 185.183594 L 336.34375 212.660156 L 281.367188 212.660156 L 281.367188 240.136719 L 253.871094 240.136719 L 253.871094 267.628906 L 226.382812 267.628906 L 226.382812 295.105469 L 198.875 295.105469 L 198.875 350.070312 L 171.394531 350.070312 L 171.394531 460 L 198.875 460 L 198.875 514.972656 L 226.382812 514.972656 L 226.382812 542.457031 L 253.871094 542.457031 L 253.871094 569.933594 L 281.367188 569.933594 L 281.367188 597.410156 L 336.34375 597.410156 L 336.34375 624.902344 L 446.335938 624.902344 " fill-opacity="1" fill-rule="nonzero"/><path fill="#f9cd1a" d="M 143.898438 597.410156 L 171.394531 597.410156 L 171.394531 514.972656 L 143.898438 514.972656 L 143.898438 542.457031 L 116.410156 542.457031 L 116.410156 514.972656 L 88.902344 514.972656 L 88.902344 432.523438 L 61.398438 432.523438 L 61.398438 295.105469 L 33.898438 295.105469 L 33.898438 514.972656 L 61.398438 514.972656 L 61.398438 569.933594 L 88.902344 569.933594 L 88.902344 624.902344 L 116.410156 624.902344 L 116.410156 652.386719 L 143.898438 652.386719 L 143.898438 597.410156 " fill-opacity="1" fill-rule="nonzero"/><path fill="#f9cd1a" d="M 143.898438 487.484375 L 143.898438 432.523438 L 116.410156 432.523438 L 116.410156 514.972656 L 143.898438 514.972656 L 143.898438 487.484375 " fill-opacity="1" fill-rule="nonzero"/><path fill="#f9cd1a" d="M 666.296875 432.523438 L 638.78125 432.523438 L 638.78125 514.972656 L 611.3125 514.972656 L 611.3125 542.457031 L 583.816406 542.457031 L 583.816406 569.933594 L 611.3125 569.933594 L 611.3125 624.902344 L 638.78125 624.902344 L 638.78125 569.933594 L 666.296875 569.933594 L 666.296875 542.457031 L 693.796875 542.457031 L 693.796875 487.484375 L 721.292969 487.484375 L 721.292969 432.523438 L 666.296875 432.523438 " fill-opacity="1" fill-rule="nonzero"/><path fill="#f9cd1a" d="M 721.292969 295.105469 L 721.292969 240.136719 L 693.796875 240.136719 L 693.796875 185.183594 L 666.296875 185.183594 L 666.296875 157.6875 L 638.78125 157.6875 L 638.78125 185.183594 L 611.3125 185.183594 L 611.3125 240.136719 L 583.816406 240.136719 L 583.816406 267.628906 L 611.3125 267.628906 L 611.3125 295.105469 L 638.78125 295.105469 L 638.78125 377.542969 L 721.292969 377.542969 L 721.292969 405.039062 L 776.28125 405.039062 L 776.28125 322.59375 L 748.773438 322.59375 L 748.773438 295.105469 L 721.292969 295.105469 " fill-opacity="1" fill-rule="nonzero"/><path fill="#f9cd1a" d="M 116.410156 322.59375 L 116.410156 377.542969 L 143.898438 377.542969 L 143.898438 295.105469 L 116.410156 295.105469 L 116.410156 322.59375 " fill-opacity="1" fill-rule="nonzero"/><path fill="#f9cd1a" d="M 88.902344 267.628906 L 88.902344 240.136719 L 61.398438 240.136719 L 61.398438 295.105469 L 88.902344 295.105469 L 88.902344 267.628906 " fill-opacity="1" fill-rule="nonzero"/><path fill="#f9cd1a" d="M 143.898438 267.628906 L 143.898438 295.105469 L 171.394531 295.105469 L 171.394531 240.136719 L 143.898438 240.136719 L 143.898438 267.628906 " fill-opacity="1" fill-rule="nonzero"/><path fill="#f9cd1a" d="M 116.410156 185.183594 L 88.902344 185.183594 L 88.902344 212.660156 L 116.410156 212.660156 L 116.410156 185.183594 " fill-opacity="1" fill-rule="nonzero"/><path fill="#f9cd1a" d="M 281.367188 185.183594 L 281.367188 157.6875 L 226.382812 157.6875 L 226.382812 185.183594 L 281.367188 185.183594 " fill-opacity="1" fill-rule="nonzero"/><path fill="#f9cd1a" d="M 143.898438 157.6875 L 116.410156 157.6875 L 116.410156 185.183594 L 143.898438 185.183594 L 143.898438 157.6875 " fill-opacity="1" fill-rule="nonzero"/><path fill="#f9cd1a" d="M 638.78125 157.6875 L 638.78125 130.214844 L 611.3125 130.214844 L 611.3125 102.726562 L 556.328125 102.726562 L 556.328125 75.242188 L 501.320312 75.242188 L 501.320312 47.757812 L 281.367188 47.757812 L 281.367188 75.242188 L 446.335938 75.242188 L 446.335938 102.726562 L 501.320312 102.726562 L 501.320312 130.214844 L 418.847656 130.214844 L 418.847656 157.6875 L 501.320312 157.6875 L 501.320312 185.183594 L 528.820312 185.183594 L 528.820312 212.660156 L 556.328125 212.660156 L 556.328125 185.183594 L 611.3125 185.183594 L 611.3125 157.6875 L 638.78125 157.6875 " fill-opacity="1" fill-rule="nonzero"/><path fill="#f9cd1a" d="M 336.34375 157.6875 L 363.863281 157.6875 L 363.863281 130.214844 L 281.367188 130.214844 L 281.367188 157.6875 L 336.34375 157.6875 " fill-opacity="1" fill-rule="nonzero"/><path fill="#f9cd1a" d="M 198.875 102.726562 L 171.394531 102.726562 L 171.394531 130.214844 L 198.875 130.214844 L 198.875 102.726562 " fill-opacity="1" fill-rule="nonzero"/><path fill="#f9cd1a" d="M 253.871094 75.242188 L 226.382812 75.242188 L 226.382812 102.726562 L 253.871094 102.726562 L 253.871094 75.242188 " fill-opacity="1" fill-rule="nonzero"/><g clip-path="url(#80a9c81ef0)"><path fill="#040606" d="M 721.292969 514.972656 L 721.292969 569.933594 L 693.796875 569.933594 L 693.796875 624.902344 L 666.296875 624.902344 L 666.296875 652.386719 L 638.78125 652.386719 L 638.78125 679.863281 L 611.3125 679.863281 L 611.3125 707.339844 L 556.328125 707.339844 L 556.328125 734.835938 L 501.320312 734.835938 L 501.320312 762.3125 L 281.367188 762.3125 L 281.367188 734.835938 L 226.382812 734.835938 L 226.382812 707.339844 L 171.394531 707.339844 L 171.394531 679.863281 L 143.898438 679.863281 L 143.898438 652.386719 L 116.410156 652.386719 L 116.410156 624.902344 L 88.902344 624.902344 L 88.902344 569.933594 L 61.398438 569.933594 L 61.398438 514.972656 L 33.898438 514.972656 L 33.898438 295.105469 L 61.398438 295.105469 L 61.398438 240.136719 L 88.902344 240.136719 L 88.902344 185.183594 L 116.410156 185.183594 L 116.410156 157.6875 L 143.898438 157.6875 L 143.898438 130.214844 L 171.394531 130.214844 L 171.394531 102.726562 L 226.382812 102.726562 L 226.382812 75.242188 L 281.367188 75.242188 L 281.367188 47.757812 L 501.320312 47.757812 L 501.320312 75.242188 L 556.328125 75.242188 L 556.328125 102.726562 L 611.3125 102.726562 L 611.3125 130.214844 L 638.78125 130.214844 L 638.78125 157.6875 L 666.296875 157.6875 L 666.296875 185.183594 L 693.796875 185.183594 L 693.796875 240.136719 L 721.292969 240.136719 L 721.292969 295.105469 L 748.773438 295.105469 L 748.773438 322.59375 L 776.28125 322.59375 L 776.28125 487.484375 L 748.773438 487.484375 L 748.773438 514.972656 Z M 776.28125 295.105469 L 776.28125 240.136719 L 748.773438 240.136719 L 748.773438 212.660156 L 721.292969 212.660156 L 721.292969 185.183594 L 693.796875 185.183594 L 693.796875 157.6875 L 666.296875 157.6875 L 666.296875 130.214844 L 638.78125 130.214844 L 638.78125 102.726562 L 611.3125 102.726562 L 611.3125 75.242188 L 583.816406 75.242188 L 583.816406 47.757812 L 528.09375 47.757812 L 528.820312 20.28125 L 253.871094 20.28125 L 253.871094 47.757812 L 198.875 47.757812 L 198.875 75.242188 L 143.898438 75.242188 L 143.898438 102.726562 L 116.410156 102.726562 L 116.410156 130.214844 L 88.902344 130.214844 L 88.902344 157.6875 L 61.398438 157.6875 L 61.398438 212.660156 L 33.898438 212.660156 L 33.898438 267.628906 L 6.410156 267.628906 L 6.410156 542.457031 L 33.898438 544.265625 L 33.898438 597.410156 L 61.398438 597.410156 L 61.398438 652.386719 L 116.410156 652.386719 L 116.410156 679.195312 L 143.898438 679.863281 L 143.898438 707.339844 L 171.394531 707.339844 L 171.394531 734.835938 L 226.382812 734.835938 L 226.382812 762.3125 L 253.871094 762.3125 L 253.871094 789.789062 L 501.320312 789.789062 L 501.320312 762.3125 L 556.328125 762.3125 L 556.328125 734.835938 L 611.3125 734.835938 L 611.3125 712.433594 L 638.78125 712.433594 L 638.78125 682.359375 L 665.859375 682.359375 L 666.296875 652.386719 L 693.796875 652.386719 L 693.796875 624.902344 L 721.292969 624.902344 L 721.292969 597.410156 L 748.773438 597.410156 L 748.773438 569.933594 L 748.976562 542.457031 L 748.773438 514.972656 L 776.28125 514.972656 L 776.28125 487.484375 L 803.769531 487.484375 L 803.769531 295.105469 L 776.28125 295.105469 " fill-opacity="1" fill-rule="nonzero"/></g></svg>