<svg xmlns="http://www.w3.org/2000/svg" xmlns:xlink="http://www.w3.org/1999/xlink" width="1080" zoomAndPan="magnify" viewBox="0 0 810 809.999993" height="1080" preserveAspectRatio="xMidYMid meet" version="1.0"><defs><clipPath id="a2d691cbde"><path d="M 124 62.269531 L 312 62.269531 L 312 125 L 124 125 Z M 124 62.269531 " clip-rule="nonzero"/></clipPath><clipPath id="ba6403584a"><path d="M 373 685 L 437 685 L 437 747.71875 L 373 747.71875 Z M 373 685 " clip-rule="nonzero"/></clipPath><clipPath id="ddc94665b4"><path d="M 498 62.269531 L 686 62.269531 L 686 125 L 498 125 Z M 498 62.269531 " clip-rule="nonzero"/></clipPath><clipPath id="916731babf"><path d="M 124 62.269531 L 312 62.269531 L 312 125 L 124 125 Z M 124 62.269531 " clip-rule="nonzero"/></clipPath></defs><g clip-path="url(#a2d691cbde)"><path fill="#1a1a1a" d="M 311.535156 124.59375 L 124.605469 124.59375 L 124.605469 62.277344 L 311.535156 62.277344 L 311.535156 124.59375 " fill-opacity="1" fill-rule="nonzero"/></g><path fill="#f8a0ca" d="M 685.378906 186.925781 L 685.378906 124.609375 L 498.460938 124.609375 L 498.460938 186.925781 L 436.152344 186.925781 L 436.152344 249.222656 L 373.851562 249.222656 L 373.851562 187.066406 L 373.839844 187.066406 L 373.839844 186.925781 L 311.535156 186.925781 L 311.535156 124.609375 L 124.605469 124.609375 L 124.605469 186.925781 L 62.300781 186.925781 L 62.300781 249.21875 L 62.308594 249.21875 L 62.308594 249.222656 L 62.300781 249.222656 L 62.300781 373.859375 L 124.605469 373.859375 L 124.605469 436.164062 L 186.914062 436.164062 L 186.914062 498.460938 L 199.53125 498.460938 L 199.53125 498.46875 L 256.890625 498.46875 L 256.890625 498.488281 L 249.226562 498.488281 L 249.226562 560.785156 L 316.417969 560.785156 L 311.535156 560.785156 L 311.535156 623.082031 L 373.851562 623.082031 L 373.851562 685.402344 L 436.152344 685.402344 L 436.152344 623.101562 L 436.148438 623.101562 L 436.148438 623.082031 L 498.460938 623.082031 L 498.460938 560.785156 L 560.765625 560.785156 L 560.765625 498.488281 L 553.101562 498.488281 L 553.101562 498.46875 L 610.457031 498.46875 L 610.457031 498.460938 L 623.074219 498.460938 L 623.074219 436.164062 L 610.457031 436.164062 L 610.457031 436.15625 L 685.378906 436.15625 L 685.378906 373.859375 L 747.691406 373.859375 L 747.691406 186.925781 L 685.378906 186.925781 " fill-opacity="1" fill-rule="nonzero"/><path fill="#1a1a1a" d="M 373.839844 249.21875 L 436.152344 249.21875 L 436.152344 186.90625 L 373.839844 186.90625 L 373.839844 249.21875 " fill-opacity="1" fill-rule="nonzero"/><path fill="#1a1a1a" d="M 436.152344 186.90625 L 498.460938 186.90625 L 498.460938 124.59375 L 436.152344 124.59375 L 436.152344 186.90625 " fill-opacity="1" fill-rule="nonzero"/><path fill="#1a1a1a" d="M 623.074219 498.46875 L 685.378906 498.46875 L 685.378906 436.15625 L 623.074219 436.15625 L 623.074219 498.46875 " fill-opacity="1" fill-rule="nonzero"/><path fill="#1a1a1a" d="M 685.378906 436.15625 L 747.691406 436.15625 L 747.691406 373.84375 L 685.378906 373.84375 L 685.378906 436.15625 " fill-opacity="1" fill-rule="nonzero"/><path fill="#1a1a1a" d="M 498.460938 623.097656 L 560.765625 623.097656 L 560.765625 560.785156 L 498.460938 560.785156 L 498.460938 623.097656 " fill-opacity="1" fill-rule="nonzero"/><path fill="#1a1a1a" d="M 560.765625 560.785156 L 623.074219 560.785156 L 623.074219 498.46875 L 560.765625 498.46875 L 560.765625 560.785156 " fill-opacity="1" fill-rule="nonzero"/><g clip-path="url(#ba6403584a)"><path fill="#1a1a1a" d="M 373.839844 747.71875 L 436.152344 747.71875 L 436.152344 685.40625 L 373.839844 685.40625 L 373.839844 747.71875 " fill-opacity="1" fill-rule="nonzero"/></g><path fill="#1a1a1a" d="M 436.152344 685.40625 L 498.460938 685.40625 L 498.460938 623.097656 L 436.152344 623.097656 L 436.152344 685.40625 " fill-opacity="1" fill-rule="nonzero"/><path fill="#1a1a1a" d="M 124.613281 436.164062 L 124.613281 498.472656 L 186.925781 498.472656 L 186.925781 436.164062 L 124.613281 436.164062 " fill-opacity="1" fill-rule="nonzero"/><path fill="#1a1a1a" d="M 62.308594 373.851562 L 62.308594 436.164062 L 124.613281 436.164062 L 124.613281 373.851562 L 62.308594 373.851562 " fill-opacity="1" fill-rule="nonzero"/><path fill="#1a1a1a" d="M 311.539062 560.792969 L 249.234375 560.792969 L 249.234375 623.101562 L 311.527344 623.101562 L 311.527344 685.402344 L 373.835938 685.402344 L 373.835938 623.089844 L 311.539062 623.089844 L 311.539062 560.792969 " fill-opacity="1" fill-rule="nonzero"/><path fill="#1a1a1a" d="M 186.925781 498.472656 L 186.925781 560.792969 L 249.234375 560.792969 L 249.234375 498.472656 L 186.925781 498.472656 " fill-opacity="1" fill-rule="nonzero"/><path fill="#1a1a1a" d="M 685.378906 124.59375 L 685.378906 186.90625 L 747.691406 186.90625 L 747.691406 124.59375 L 685.378906 124.59375 " fill-opacity="1" fill-rule="nonzero"/><path fill="#1a1a1a" d="M 311.535156 124.59375 L 311.535156 186.90625 L 373.839844 186.90625 L 373.839844 124.59375 L 311.535156 124.59375 " fill-opacity="1" fill-rule="nonzero"/><g clip-path="url(#ddc94665b4)"><path fill="#1a1a1a" d="M 623.074219 62.277344 L 498.460938 62.277344 L 498.460938 124.59375 L 685.378906 124.59375 L 685.378906 62.277344 L 623.074219 62.277344 " fill-opacity="1" fill-rule="nonzero"/></g><g clip-path="url(#916731babf)"><path fill="#1a1a1a" d="M 249.226562 62.277344 L 124.605469 62.277344 L 124.605469 124.59375 L 311.535156 124.59375 L 311.535156 62.277344 L 249.226562 62.277344 " fill-opacity="1" fill-rule="nonzero"/></g><path fill="#1a1a1a" d="M 747.691406 186.90625 L 747.691406 373.84375 L 810 373.84375 L 810 186.90625 L 747.691406 186.90625 " fill-opacity="1" fill-rule="nonzero"/><path fill="#1a1a1a" d="M 62.308594 311.539062 L 62.308594 186.914062 L 124.613281 186.914062 L 124.613281 124.601562 L 62.308594 124.601562 L 62.308594 186.90625 L 0 186.90625 L 0 373.851562 L 62.308594 373.851562 L 62.308594 311.539062 " fill-opacity="1" fill-rule="nonzero"/><path fill="#bb166a" d="M 186.933594 186.914062 L 124.621094 186.914062 L 124.621094 124.59375 L 186.933594 124.59375 L 186.933594 186.914062 " fill-opacity="1" fill-rule="nonzero"/><path fill="#bb166a" d="M 62.3125 186.90625 L 62.3125 373.84375 L 124.621094 373.84375 L 124.621094 186.90625 L 62.3125 186.90625 " fill-opacity="1" fill-rule="nonzero"/><path fill="#ffffff" d="M 591.914062 249.996094 L 529.605469 249.996094 L 529.605469 187.683594 L 591.914062 187.683594 L 591.914062 249.996094 " fill-opacity="1" fill-rule="nonzero"/><path fill="#ffffff" d="M 654.226562 249.996094 L 591.914062 249.996094 L 591.914062 187.683594 L 654.226562 187.683594 L 654.226562 249.996094 " fill-opacity="1" fill-rule="nonzero"/><path fill="#ffffff" d="M 654.226562 311.535156 L 591.921875 311.535156 L 591.921875 249.21875 L 654.226562 249.21875 L 654.226562 311.535156 " fill-opacity="1" fill-rule="nonzero"/><path fill="#f8a0ca" d="M 373.847656 685.402344 L 436.152344 685.402344 L 436.152344 623.089844 L 373.847656 623.089844 L 373.847656 685.402344 " fill-opacity="1" fill-rule="nonzero"/><path fill="#bb166a" d="M 623.066406 436.164062 L 685.378906 436.164062 L 685.378906 373.84375 L 623.066406 373.84375 L 623.066406 436.164062 " fill-opacity="1" fill-rule="nonzero"/><path fill="#bb166a" d="M 498.453125 560.773438 L 436.160156 560.773438 L 436.160156 623.082031 L 498.472656 623.082031 L 498.472656 560.785156 L 560.761719 560.785156 L 560.761719 498.472656 L 498.453125 498.472656 L 498.453125 560.773438 " fill-opacity="1" fill-rule="nonzero"/><path fill="#bb166a" d="M 560.761719 498.472656 L 623.066406 498.472656 L 623.066406 436.164062 L 560.761719 436.164062 L 560.761719 498.472656 " fill-opacity="1" fill-rule="nonzero"/><path fill="#bb166a" d="M 373.835938 623.097656 L 373.835938 685.40625 L 436.148438 685.40625 L 436.148438 623.097656 L 373.835938 623.097656 " fill-opacity="1" fill-rule="nonzero"/><path fill="#bb166a" d="M 124.613281 373.851562 L 124.613281 436.164062 L 186.921875 436.164062 L 186.921875 373.851562 L 124.613281 373.851562 " fill-opacity="1" fill-rule="nonzero"/><path fill="#bb166a" d="M 311.539062 498.472656 L 249.226562 498.472656 L 249.226562 560.792969 L 311.519531 560.792969 L 311.519531 623.089844 L 373.828125 623.089844 L 373.828125 560.773438 L 311.539062 560.773438 L 311.539062 498.472656 " fill-opacity="1" fill-rule="nonzero"/><path fill="#bb166a" d="M 186.921875 436.164062 L 186.921875 498.472656 L 249.226562 498.472656 L 249.226562 436.164062 L 186.921875 436.164062 " fill-opacity="1" fill-rule="nonzero"/></svg>